<?xml version="1.0" encoding="UTF-8"?>
<svg id="_图层_1" data-name="图层 1" xmlns="http://www.w3.org/2000/svg" xmlns:xlink="http://www.w3.org/1999/xlink" viewBox="0 0 263.12 71">
  <defs>
    <style>
      .cls-1 {
        fill: url(#_未命名的渐变_25-17);
      }

      .cls-2 {
        fill: url(#_未命名的渐变_25-6);
      }

      .cls-3 {
        fill: url(#_未命名的渐变_25-15);
      }

      .cls-4 {
        fill: url(#_未命名的渐变_25-3);
      }

      .cls-5 {
        fill: url(#_未命名的渐变_25-5);
      }

      .cls-6 {
        fill: url(#_未命名的渐变_25-18);
      }

      .cls-7 {
        stroke: #00913a;
      }

      .cls-7, .cls-8, .cls-9, .cls-10, .cls-11 {
        fill: none;
      }

      .cls-7, .cls-8, .cls-10, .cls-11 {
        stroke-miterlimit: 8;
      }

      .cls-7, .cls-9 {
        stroke-width: 4px;
      }

      .cls-12 {
        fill: url(#_未命名的渐变_25-16);
      }

      .cls-13 {
        fill: url(#_未命名的渐变_25-23);
      }

      .cls-14 {
        fill: url(#_未命名的渐变_25-13);
      }

      .cls-15 {
        fill: #fff;
      }

      .cls-16 {
        fill: url(#_未命名的渐变_25-20);
      }

      .cls-17 {
        fill: url(#_未命名的渐变_25-25);
      }

      .cls-18 {
        fill: url(#_未命名的渐变_25-21);
      }

      .cls-19 {
        fill: url(#_未命名的渐变_25-12);
      }

      .cls-20 {
        fill: url(#_未命名的渐变_25-22);
      }

      .cls-8 {
        stroke: #8f338e;
      }

      .cls-8, .cls-10, .cls-11 {
        stroke-width: 2px;
      }

      .cls-21 {
        fill: #666;
      }

      .cls-22 {
        fill: url(#_未命名的渐变_25-9);
      }

      .cls-9 {
        stroke: url(#_未命名的渐变_344);
        stroke-linecap: round;
        stroke-miterlimit: 10;
      }

      .cls-23 {
        fill: url(#_未命名的渐变_25-10);
      }

      .cls-24 {
        fill: #e73828;
      }

      .cls-10 {
        stroke: #036eb7;
      }

      .cls-25 {
        fill: url(#_未命名的渐变_25-7);
      }

      .cls-26 {
        fill: url(#_未命名的渐变_25-24);
      }

      .cls-27 {
        fill: url(#_未命名的渐变_25-19);
      }

      .cls-11 {
        stroke: #e73828;
      }

      .cls-28 {
        fill: url(#_未命名的渐变_25-8);
      }

      .cls-29 {
        fill: url(#_未命名的渐变_25-2);
      }

      .cls-30 {
        fill: url(#_未命名的渐变_25);
      }

      .cls-31 {
        fill: url(#_未命名的渐变_25-11);
      }

      .cls-32 {
        fill: url(#_未命名的渐变_25-4);
      }

      .cls-33 {
        fill: url(#_未命名的渐变_25-14);
      }
    </style>
    <linearGradient id="_未命名的渐变_344" data-name="未命名的渐变 344" x1="18.63" y1="33.04" x2="98.64" y2="33.04" gradientUnits="userSpaceOnUse">
      <stop offset="0" stop-color="#ff2f1f"/>
      <stop offset=".04" stop-color="#fe431a"/>
      <stop offset=".12" stop-color="#fd6c12"/>
      <stop offset=".21" stop-color="#fc8f0c"/>
      <stop offset=".29" stop-color="#fba906"/>
      <stop offset=".38" stop-color="#fbbc02"/>
      <stop offset=".47" stop-color="#fbc800"/>
      <stop offset=".56" stop-color="#fbcc00"/>
      <stop offset=".8" stop-color="#f0932e"/>
      <stop offset=".89" stop-color="#e9652d"/>
      <stop offset="1" stop-color="#e4352b"/>
    </linearGradient>
    <radialGradient id="_未命名的渐变_25" data-name="未命名的渐变 25" cx="31.9" cy="904.23" fx="31.9" fy="904.23" r="50.73" gradientTransform="translate(0 -840.11)" gradientUnits="userSpaceOnUse">
      <stop offset="0" stop-color="#ffec00"/>
      <stop offset=".47" stop-color="#e94a3d"/>
      <stop offset="1" stop-color="#5a1edb"/>
    </radialGradient>
    <radialGradient id="_未命名的渐变_25-2" data-name="未命名的渐变 25" cy="904.23" fy="904.23" r="50.73" xlink:href="#_未命名的渐变_25"/>
    <radialGradient id="_未命名的渐变_25-3" data-name="未命名的渐变 25" cx="31.9" cy="904.23" fx="31.9" fy="904.23" r="50.73" xlink:href="#_未命名的渐变_25"/>
    <radialGradient id="_未命名的渐变_25-4" data-name="未命名的渐变 25" cx="31.9" cy="904.23" fx="31.9" fy="904.23" r="50.73" xlink:href="#_未命名的渐变_25"/>
    <radialGradient id="_未命名的渐变_25-5" data-name="未命名的渐变 25" cx="31.9" fx="31.9" r="50.73" xlink:href="#_未命名的渐变_25"/>
    <radialGradient id="_未命名的渐变_25-6" data-name="未命名的渐变 25" cx="31.9" cy="904.23" fx="31.9" fy="904.23" r="50.73" xlink:href="#_未命名的渐变_25"/>
    <radialGradient id="_未命名的渐变_25-7" data-name="未命名的渐变 25" cx="31.9" fx="31.9" r="50.73" xlink:href="#_未命名的渐变_25"/>
    <radialGradient id="_未命名的渐变_25-8" data-name="未命名的渐变 25" cx="31.9" cy="904.23" fx="31.9" fy="904.23" r="50.73" xlink:href="#_未命名的渐变_25"/>
    <radialGradient id="_未命名的渐变_25-9" data-name="未命名的渐变 25" cx="31.9" fx="31.9" r="50.73" xlink:href="#_未命名的渐变_25"/>
    <radialGradient id="_未命名的渐变_25-10" data-name="未命名的渐变 25" cx="31.9" cy="904.23" fx="31.9" fy="904.23" r="50.73" xlink:href="#_未命名的渐变_25"/>
    <radialGradient id="_未命名的渐变_25-11" data-name="未命名的渐变 25" cx="31.9" cy="904.23" fx="31.9" fy="904.23" r="50.73" xlink:href="#_未命名的渐变_25"/>
    <radialGradient id="_未命名的渐变_25-12" data-name="未命名的渐变 25" r="50.73" xlink:href="#_未命名的渐变_25"/>
    <radialGradient id="_未命名的渐变_25-13" data-name="未命名的渐变 25" cx="31.9" cy="904.23" fx="31.9" fy="904.23" r="50.73" xlink:href="#_未命名的渐变_25"/>
    <radialGradient id="_未命名的渐变_25-14" data-name="未命名的渐变 25" cx="31.9" cy="904.23" fx="31.9" fy="904.23" r="50.73" xlink:href="#_未命名的渐变_25"/>
    <radialGradient id="_未命名的渐变_25-15" data-name="未命名的渐变 25" cx="31.9" cy="904.23" fx="31.9" fy="904.23" r="50.73" xlink:href="#_未命名的渐变_25"/>
    <radialGradient id="_未命名的渐变_25-16" data-name="未命名的渐变 25" cx="31.9" fx="31.9" r="50.73" xlink:href="#_未命名的渐变_25"/>
    <radialGradient id="_未命名的渐变_25-17" data-name="未命名的渐变 25" cx="31.9" cy="904.23" fx="31.9" fy="904.23" r="50.73" xlink:href="#_未命名的渐变_25"/>
    <radialGradient id="_未命名的渐变_25-18" data-name="未命名的渐变 25" cx="31.9" cy="904.23" fx="31.9" fy="904.23" r="50.73" xlink:href="#_未命名的渐变_25"/>
    <radialGradient id="_未命名的渐变_25-19" data-name="未命名的渐变 25" cx="31.9" cy="904.23" fx="31.9" fy="904.23" r="50.73" xlink:href="#_未命名的渐变_25"/>
    <radialGradient id="_未命名的渐变_25-20" data-name="未命名的渐变 25" cx="31.9" cy="904.23" fx="31.9" fy="904.23" r="50.73" xlink:href="#_未命名的渐变_25"/>
    <radialGradient id="_未命名的渐变_25-21" data-name="未命名的渐变 25" cx="31.9" cy="904.23" fx="31.9" fy="904.23" r="50.73" xlink:href="#_未命名的渐变_25"/>
    <radialGradient id="_未命名的渐变_25-22" data-name="未命名的渐变 25" cx="31.9" cy="904.23" fx="31.9" fy="904.23" r="50.73" xlink:href="#_未命名的渐变_25"/>
    <radialGradient id="_未命名的渐变_25-23" data-name="未命名的渐变 25" cx="31.9" cy="904.23" fx="31.9" fy="904.23" r="50.73" xlink:href="#_未命名的渐变_25"/>
    <radialGradient id="_未命名的渐变_25-24" data-name="未命名的渐变 25" cx="31.9" cy="904.23" fx="31.9" fy="904.23" r="50.73" xlink:href="#_未命名的渐变_25"/>
    <radialGradient id="_未命名的渐变_25-25" data-name="未命名的渐变 25" cx="31.9" cy="904.23" fx="31.9" fy="904.23" r="50.73" xlink:href="#_未命名的渐变_25"/>
  </defs>
  <g>
    <path class="cls-21" d="M138.92,46.07h-3.82l-2.73-7.04h-11.15l-2.58,7.04h-3.82l10.2-25.72h3.7l10.2,25.72ZM131.3,36.13l-4.04-10.69c-.13-.34-.27-.94-.42-1.79h-.09c-.13.77-.27,1.37-.43,1.79l-4.01,10.69h8.99Z"/>
    <path class="cls-21" d="M141.95,21.24c0-.58.2-1.06.61-1.45.41-.39.91-.59,1.51-.59s1.13.19,1.55.58c.42.39.63.87.63,1.46s-.21,1.05-.63,1.44c-.42.38-.94.57-1.55.57s-1.12-.19-1.52-.57c-.4-.38-.6-.86-.6-1.44ZM142.34,46.07v-18.36h3.39v18.36h-3.39Z"/>
    <path class="cls-21" d="M179.3,46.07h-3.39v-10.54c0-1.99-.32-3.42-.97-4.27-.65-.86-1.71-1.29-3.18-1.29-1.24,0-2.31.56-3.2,1.68-.89,1.12-1.33,2.44-1.33,3.97v10.46h-3.39v-10.87c0-3.49-1.4-5.23-4.2-5.23-1.29,0-2.36.53-3.21,1.59-.85,1.06-1.27,2.42-1.27,4.07v10.44h-3.39v-18.36h3.39v2.91h.07c1.36-2.22,3.35-3.34,5.96-3.34,1.28,0,2.41.34,3.39,1.01.98.68,1.66,1.59,2.04,2.74,1.42-2.5,3.54-3.75,6.36-3.75,4.21,0,6.31,2.49,6.31,7.47v11.32Z"/>
    <path class="cls-21" d="M183.88,42.11c1.71,1.18,3.54,1.78,5.51,1.78,2.64,0,3.96-.83,3.96-2.49,0-.71-.29-1.29-.86-1.75-.58-.46-1.75-1-3.51-1.64-2.12-.82-3.5-1.63-4.13-2.43-.63-.8-.95-1.77-.95-2.91,0-1.63.72-2.93,2.15-3.91,1.44-.98,3.2-1.47,5.3-1.47,1.62,0,3.13.27,4.53.81v3.14c-1.43-.89-3.05-1.33-4.86-1.33-1.08,0-1.97.23-2.65.68-.68.45-1.02,1.05-1.02,1.79s.25,1.3.73,1.71c.49.41,1.58.94,3.26,1.58,2.13.76,3.57,1.56,4.32,2.37.75.82,1.12,1.83,1.12,3.04,0,1.68-.72,3.01-2.15,3.98-1.44.97-3.29,1.45-5.58,1.45-1.98,0-3.71-.36-5.19-1.08v-3.32Z"/>
    <path class="cls-21" d="M205.23,36.46v9.61h-3.46v-25.72h7.61c2.89,0,5.14.67,6.73,2.01,1.6,1.34,2.39,3.25,2.39,5.74s-.93,4.57-2.8,6.13c-1.87,1.57-4.2,2.31-7,2.22h-3.47ZM205.23,23.28v10.26h3.2c2.11,0,3.71-.46,4.81-1.37s1.64-2.22,1.64-3.93c0-3.31-2.04-4.96-6.12-4.96h-3.53Z"/>
    <path class="cls-21" d="M238.56,27.71l-8.68,21.13c-1.61,3.92-3.89,5.88-6.83,5.88-.84,0-1.56-.09-2.16-.27v-2.86c.66.24,1.29.37,1.9.37,1.53,0,2.68-.86,3.44-2.59l1.47-3.34-7.5-18.33h3.75l5,13.8.42,1.51h.09c.07-.34.21-.84.41-1.48l5.22-13.83h3.47Z"/>
  </g>
  <g>
    <g>
      <polyline class="cls-7" points="74.03 25.78 86.6 25.78 89.82 32.01"/>
      <polyline class="cls-8" points="42.74 28.48 34.31 28.48 32.01 32.42"/>
      <polyline class="cls-10" points="42.04 25.58 32.84 25.58 28.46 33.04"/>
      <polyline class="cls-11" points="41.5 23.03 31.09 23.03 25.76 32.01"/>
      <g>
        <rect class="cls-15" x="42.78" y="19.43" width="31.8" height="11.42"/>
        <polygon class="cls-15" points="42.33 3.42 54.26 3.42 50.17 32.42 38.28 32.01 42.33 3.42"/>
        <polygon class="cls-15" points="67.84 3.66 79.77 3.66 75.72 32.42 63.83 32.01 67.84 3.66"/>
      </g>
      <g>
        <polygon class="cls-24" points="47.74 32.01 51.46 5.89 44.33 5.89 40.71 32.01 47.74 32.01"/>
        <polygon class="cls-24" points="69.84 6.13 76.97 6.13 73.29 32.01 66.25 32.01 69.84 6.13"/>
        <rect class="cls-24" x="45.37" y="21.93" width="26.6" height="6.41"/>
      </g>
      <line class="cls-9" x1="20.63" y1="33.04" x2="96.64" y2="33.04"/>
    </g>
    <g>
      <circle class="cls-30" cx="58.63" cy="42.83" r="3.57"/>
      <circle class="cls-29" cx="58.63" cy="64.68" r="3.58"/>
      <circle class="cls-4" cx="47.74" cy="61.76" r="3.58"/>
      <circle class="cls-32" cx="69.52" cy="61.77" r="3.58"/>
      <circle class="cls-5" cx="39.77" cy="53.79" r="3.57"/>
      <circle class="cls-2" cx="77.51" cy="53.79" r="3.58"/>
      <circle class="cls-25" cx="36.84" cy="42.9" r="3.57"/>
      <circle class="cls-28" cx="80.44" cy="42.9" r="3.58"/>
      <circle class="cls-22" cx="54.87" cy="56.92" r="2.4"/>
      <circle class="cls-23" cx="62.4" cy="56.93" r="2.4"/>
      <circle class="cls-31" cx="48.38" cy="53.16" r="2.4"/>
      <circle class="cls-19" cx="68.9" cy="53.16" r="2.41"/>
      <circle class="cls-14" cx="44.61" cy="46.66" r="2.4"/>
      <circle class="cls-33" cx="72.66" cy="46.65" r="2.41"/>
      <circle class="cls-3" cx="44.61" cy="39.26" r="2.4"/>
      <circle class="cls-12" cx="72.66" cy="39.26" r="2.41"/>
      <circle class="cls-1" cx="58.62" cy="51.43" r="1.62"/>
      <circle class="cls-6" cx="54.36" cy="50.27" r="1.63"/>
      <circle class="cls-27" cx="62.91" cy="50.28" r="1.62"/>
      <circle class="cls-16" cx="51.25" cy="47.17" r="1.62"/>
      <circle class="cls-18" cx="66.02" cy="47.16" r="1.63"/>
      <circle class="cls-20" cx="50.1" cy="42.91" r="1.62"/>
      <circle class="cls-13" cx="67.16" cy="42.91" r="1.62"/>
      <circle class="cls-26" cx="51.25" cy="38.62" r="1.62"/>
      <circle class="cls-17" cx="66.02" cy="38.63" r="1.63"/>
    </g>
  </g>
</svg>