<?xml version="1.0" encoding="UTF-8"?>
<svg id="_图层_1" data-name="图层 1" xmlns="http://www.w3.org/2000/svg" xmlns:xlink="http://www.w3.org/1999/xlink" viewBox="0 0 127.48 96">
  <defs>
    <style>
      .cls-1 {
        fill: url(#_未命名的渐变_25-17);
      }

      .cls-2 {
        fill: url(#_未命名的渐变_25-6);
      }

      .cls-3 {
        fill: url(#_未命名的渐变_25-15);
      }

      .cls-4 {
        fill: url(#_未命名的渐变_25-3);
      }

      .cls-5 {
        fill: url(#_未命名的渐变_25-5);
      }

      .cls-6 {
        fill: url(#_未命名的渐变_25-18);
      }

      .cls-7 {
        stroke: #00913a;
      }

      .cls-7, .cls-8, .cls-9, .cls-10, .cls-11 {
        fill: none;
      }

      .cls-7, .cls-8, .cls-10, .cls-11 {
        stroke-miterlimit: 8;
      }

      .cls-7, .cls-9 {
        stroke-width: 4px;
      }

      .cls-12 {
        fill: url(#_未命名的渐变_25-16);
      }

      .cls-13 {
        fill: url(#_未命名的渐变_25-23);
      }

      .cls-14 {
        fill: url(#_未命名的渐变_25-13);
      }

      .cls-15 {
        fill: #fff;
      }

      .cls-16 {
        fill: url(#_未命名的渐变_25-20);
      }

      .cls-17 {
        fill: url(#_未命名的渐变_25-25);
      }

      .cls-18 {
        fill: url(#_未命名的渐变_25-21);
      }

      .cls-19 {
        fill: url(#_未命名的渐变_25-12);
      }

      .cls-20 {
        fill: url(#_未命名的渐变_25-22);
      }

      .cls-8 {
        stroke: #8f338e;
      }

      .cls-8, .cls-10, .cls-11 {
        stroke-width: 2px;
      }

      .cls-21 {
        fill: #666;
      }

      .cls-22 {
        fill: url(#_未命名的渐变_25-9);
      }

      .cls-9 {
        stroke: url(#_未命名的渐变_344);
        stroke-linecap: round;
        stroke-miterlimit: 10;
      }

      .cls-23 {
        fill: url(#_未命名的渐变_25-10);
      }

      .cls-24 {
        fill: #e73828;
      }

      .cls-10 {
        stroke: #036eb7;
      }

      .cls-25 {
        fill: url(#_未命名的渐变_25-7);
      }

      .cls-26 {
        fill: url(#_未命名的渐变_25-24);
      }

      .cls-27 {
        fill: url(#_未命名的渐变_25-19);
      }

      .cls-11 {
        stroke: #e73828;
      }

      .cls-28 {
        fill: url(#_未命名的渐变_25-8);
      }

      .cls-29 {
        fill: url(#_未命名的渐变_25-2);
      }

      .cls-30 {
        fill: url(#_未命名的渐变_25);
      }

      .cls-31 {
        fill: url(#_未命名的渐变_25-11);
      }

      .cls-32 {
        fill: url(#_未命名的渐变_25-4);
      }

      .cls-33 {
        fill: url(#_未命名的渐变_25-14);
      }
    </style>
    <linearGradient id="_未命名的渐变_344" data-name="未命名的渐变 344" x1="20.94" y1="34.42" x2="100.95" y2="34.42" gradientUnits="userSpaceOnUse">
      <stop offset="0" stop-color="#ff2f1f"/>
      <stop offset=".04" stop-color="#fe431a"/>
      <stop offset=".12" stop-color="#fd6c12"/>
      <stop offset=".21" stop-color="#fc8f0c"/>
      <stop offset=".29" stop-color="#fba906"/>
      <stop offset=".38" stop-color="#fbbc02"/>
      <stop offset=".47" stop-color="#fbc800"/>
      <stop offset=".56" stop-color="#fbcc00"/>
      <stop offset=".8" stop-color="#f0932e"/>
      <stop offset=".89" stop-color="#e9652d"/>
      <stop offset="1" stop-color="#e4352b"/>
    </linearGradient>
    <radialGradient id="_未命名的渐变_25" data-name="未命名的渐变 25" cx="34.21" cy="905.61" fx="34.21" fy="905.61" r="50.73" gradientTransform="translate(0 -840.11)" gradientUnits="userSpaceOnUse">
      <stop offset="0" stop-color="#ffec00"/>
      <stop offset=".47" stop-color="#e94a3d"/>
      <stop offset="1" stop-color="#5a1edb"/>
    </radialGradient>
    <radialGradient id="_未命名的渐变_25-2" data-name="未命名的渐变 25" cy="905.61" fy="905.61" r="50.73" xlink:href="#_未命名的渐变_25"/>
    <radialGradient id="_未命名的渐变_25-3" data-name="未命名的渐变 25" cx="34.21" cy="905.61" fx="34.21" fy="905.61" r="50.73" xlink:href="#_未命名的渐变_25"/>
    <radialGradient id="_未命名的渐变_25-4" data-name="未命名的渐变 25" cx="34.21" cy="905.61" fx="34.21" fy="905.61" r="50.73" xlink:href="#_未命名的渐变_25"/>
    <radialGradient id="_未命名的渐变_25-5" data-name="未命名的渐变 25" cx="34.21" fx="34.21" r="50.73" xlink:href="#_未命名的渐变_25"/>
    <radialGradient id="_未命名的渐变_25-6" data-name="未命名的渐变 25" cx="34.21" cy="905.61" fx="34.21" fy="905.61" r="50.73" xlink:href="#_未命名的渐变_25"/>
    <radialGradient id="_未命名的渐变_25-7" data-name="未命名的渐变 25" cx="34.21" fx="34.21" r="50.73" xlink:href="#_未命名的渐变_25"/>
    <radialGradient id="_未命名的渐变_25-8" data-name="未命名的渐变 25" cx="34.21" cy="905.61" fx="34.21" fy="905.61" r="50.73" xlink:href="#_未命名的渐变_25"/>
    <radialGradient id="_未命名的渐变_25-9" data-name="未命名的渐变 25" cx="34.21" fx="34.21" r="50.73" xlink:href="#_未命名的渐变_25"/>
    <radialGradient id="_未命名的渐变_25-10" data-name="未命名的渐变 25" cx="34.21" cy="905.61" fx="34.21" fy="905.61" r="50.73" xlink:href="#_未命名的渐变_25"/>
    <radialGradient id="_未命名的渐变_25-11" data-name="未命名的渐变 25" cx="34.21" cy="905.61" fx="34.21" fy="905.61" r="50.73" xlink:href="#_未命名的渐变_25"/>
    <radialGradient id="_未命名的渐变_25-12" data-name="未命名的渐变 25" r="50.73" xlink:href="#_未命名的渐变_25"/>
    <radialGradient id="_未命名的渐变_25-13" data-name="未命名的渐变 25" cx="34.21" cy="905.61" fx="34.21" fy="905.61" r="50.73" xlink:href="#_未命名的渐变_25"/>
    <radialGradient id="_未命名的渐变_25-14" data-name="未命名的渐变 25" cx="34.21" cy="905.61" fx="34.21" fy="905.61" r="50.73" xlink:href="#_未命名的渐变_25"/>
    <radialGradient id="_未命名的渐变_25-15" data-name="未命名的渐变 25" cx="34.21" cy="905.61" fx="34.21" fy="905.61" r="50.73" xlink:href="#_未命名的渐变_25"/>
    <radialGradient id="_未命名的渐变_25-16" data-name="未命名的渐变 25" cx="34.21" fx="34.21" r="50.73" xlink:href="#_未命名的渐变_25"/>
    <radialGradient id="_未命名的渐变_25-17" data-name="未命名的渐变 25" cx="34.21" cy="905.61" fx="34.21" fy="905.61" r="50.73" xlink:href="#_未命名的渐变_25"/>
    <radialGradient id="_未命名的渐变_25-18" data-name="未命名的渐变 25" cx="34.21" cy="905.61" fx="34.21" fy="905.61" r="50.73" xlink:href="#_未命名的渐变_25"/>
    <radialGradient id="_未命名的渐变_25-19" data-name="未命名的渐变 25" cx="34.21" cy="905.61" fx="34.21" fy="905.61" r="50.73" xlink:href="#_未命名的渐变_25"/>
    <radialGradient id="_未命名的渐变_25-20" data-name="未命名的渐变 25" cx="34.21" cy="905.61" fx="34.21" fy="905.61" r="50.73" xlink:href="#_未命名的渐变_25"/>
    <radialGradient id="_未命名的渐变_25-21" data-name="未命名的渐变 25" cx="34.21" cy="905.61" fx="34.21" fy="905.61" r="50.73" xlink:href="#_未命名的渐变_25"/>
    <radialGradient id="_未命名的渐变_25-22" data-name="未命名的渐变 25" cx="34.21" cy="905.61" fx="34.21" fy="905.61" r="50.73" xlink:href="#_未命名的渐变_25"/>
    <radialGradient id="_未命名的渐变_25-23" data-name="未命名的渐变 25" cx="34.21" cy="905.61" fx="34.21" fy="905.61" r="50.73" xlink:href="#_未命名的渐变_25"/>
    <radialGradient id="_未命名的渐变_25-24" data-name="未命名的渐变 25" cx="34.21" cy="905.61" fx="34.21" fy="905.61" r="50.73" xlink:href="#_未命名的渐变_25"/>
    <radialGradient id="_未命名的渐变_25-25" data-name="未命名的渐变 25" cx="34.21" cy="905.61" fx="34.21" fy="905.61" r="50.73" xlink:href="#_未命名的渐变_25"/>
  </defs>
  <g>
    <path class="cls-21" d="M29.17,85.64l5.15-12.88h1.91l5.49,12.88h-2.02l-1.56-3.9h-5.61l-1.47,3.9h-1.89ZM33.04,80.34h4.55l-1.4-3.57c-.43-1.08-.74-1.97-.95-2.67-.17.83-.41,1.65-.72,2.46l-1.47,3.78Z"/>
    <path class="cls-21" d="M42.94,74.57v-1.82h1.65v1.82h-1.65ZM42.94,85.64v-9.33h1.65v9.33h-1.65Z"/>
    <path class="cls-21" d="M47.1,85.64v-9.33h1.47v1.31c.3-.46.71-.82,1.22-1.1.51-.28,1.08-.42,1.73-.42.72,0,1.31.14,1.77.43.46.29.79.69.97,1.2.77-1.09,1.77-1.63,3-1.63.96,0,1.71.26,2.22.77.52.51.78,1.3.78,2.37v6.41h-1.64v-5.88c0-.63-.05-1.09-.16-1.37-.11-.28-.3-.5-.58-.67-.28-.17-.61-.25-.99-.25-.68,0-1.25.22-1.7.65-.45.44-.68,1.14-.68,2.1v5.42h-1.65v-6.06c0-.7-.13-1.23-.4-1.58s-.71-.53-1.32-.53c-.46,0-.89.12-1.29.35s-.68.58-.86,1.03c-.18.45-.27,1.1-.27,1.95v4.84h-1.65Z"/>
    <path class="cls-21" d="M62.05,82.85l1.63-.25c.09.63.35,1.11.76,1.44s1,.5,1.75.5,1.32-.15,1.68-.44c.37-.3.55-.64.55-1.04,0-.36-.16-.64-.48-.84-.23-.14-.79-.32-1.68-.54-1.21-.29-2.05-.55-2.51-.76-.47-.21-.82-.51-1.06-.89-.24-.38-.36-.8-.36-1.25,0-.42.1-.8.3-1.16s.47-.65.81-.88c.26-.18.61-.34,1.05-.46s.92-.19,1.42-.19c.76,0,1.43.11,2.01.32.58.21,1,.5,1.28.86s.46.84.57,1.45l-1.61.21c-.07-.48-.29-.86-.64-1.12-.35-.27-.85-.4-1.49-.4-.76,0-1.3.12-1.62.36-.32.24-.49.52-.49.84,0,.21.07.39.2.55.13.17.34.31.63.42.16.06.65.19,1.46.4,1.17.3,1.98.54,2.44.73.46.19.82.47,1.08.83.26.36.39.81.39,1.35s-.16,1.02-.48,1.49-.78.83-1.39,1.08-1.29.38-2.05.38c-1.26,0-2.23-.25-2.89-.76-.66-.5-1.08-1.25-1.27-2.24Z"/>
    <path class="cls-21" d="M72.29,85.64v-12.88h5.06c.89,0,1.57.04,2.04.12.66.11,1.21.31,1.66.6s.8.71,1.08,1.24.41,1.12.41,1.76c0,1.1-.36,2.02-1.09,2.78s-2.04,1.14-3.94,1.14h-3.44v5.24h-1.78ZM74.07,78.88h3.47c1.15,0,1.96-.21,2.44-.62s.72-.99.72-1.73c0-.54-.14-1-.43-1.38s-.66-.64-1.12-.76c-.3-.08-.85-.11-1.66-.11h-3.43v4.61Z"/>
    <path class="cls-21" d="M84.51,89.23l-.18-1.49c.36.09.67.14.94.14.37,0,.66-.06.88-.18s.4-.28.54-.49c.1-.16.27-.55.5-1.18.03-.09.08-.22.15-.39l-3.69-9.35h1.78l2.02,5.41c.26.69.5,1.41.7,2.16.19-.73.41-1.44.68-2.13l2.08-5.44h1.65l-3.7,9.49c-.4,1.03-.7,1.73-.92,2.12-.29.52-.63.9-1.01,1.15s-.83.36-1.35.36c-.32,0-.67-.06-1.06-.19Z"/>
  </g>
  <g>
    <g>
      <polyline class="cls-7" points="76.34 27.16 88.91 27.16 92.13 33.39"/>
      <polyline class="cls-8" points="45.04 29.85 36.61 29.85 34.31 33.8"/>
      <polyline class="cls-10" points="44.34 26.96 35.15 26.96 30.77 34.42"/>
      <polyline class="cls-11" points="43.81 24.41 33.4 24.41 28.06 33.39"/>
      <g>
        <rect class="cls-15" x="45.09" y="20.81" width="31.8" height="11.42"/>
        <polygon class="cls-15" points="44.64 4.8 56.57 4.8 52.48 33.8 40.59 33.39 44.64 4.8"/>
        <polygon class="cls-15" points="70.15 5.04 82.08 5.04 78.02 33.8 66.14 33.39 70.15 5.04"/>
      </g>
      <g>
        <polygon class="cls-24" points="50.05 33.39 53.76 7.27 46.64 7.27 43.01 33.39 50.05 33.39"/>
        <polygon class="cls-24" points="72.15 7.51 79.27 7.51 75.6 33.39 68.56 33.39 72.15 7.51"/>
        <rect class="cls-24" x="47.67" y="23.31" width="26.6" height="6.41"/>
      </g>
      <line class="cls-9" x1="22.94" y1="34.42" x2="98.95" y2="34.42"/>
    </g>
    <g>
      <circle class="cls-30" cx="60.94" cy="44.21" r="3.57"/>
      <circle class="cls-29" cx="60.93" cy="66.06" r="3.58"/>
      <circle class="cls-4" cx="50.05" cy="63.14" r="3.58"/>
      <circle class="cls-32" cx="71.83" cy="63.15" r="3.58"/>
      <circle class="cls-5" cx="42.07" cy="55.17" r="3.57"/>
      <circle class="cls-2" cx="79.81" cy="55.17" r="3.58"/>
      <circle class="cls-25" cx="39.15" cy="44.28" r="3.57"/>
      <circle class="cls-28" cx="82.74" cy="44.28" r="3.58"/>
      <circle class="cls-22" cx="57.18" cy="58.3" r="2.4"/>
      <circle class="cls-23" cx="64.71" cy="58.3" r="2.4"/>
      <circle class="cls-31" cx="50.68" cy="54.54" r="2.4"/>
      <circle class="cls-19" cx="71.21" cy="54.54" r="2.41"/>
      <circle class="cls-14" cx="46.91" cy="48.04" r="2.4"/>
      <circle class="cls-33" cx="74.97" cy="48.03" r="2.41"/>
      <circle class="cls-3" cx="46.91" cy="40.64" r="2.4"/>
      <circle class="cls-12" cx="74.97" cy="40.64" r="2.41"/>
      <circle class="cls-1" cx="60.93" cy="52.81" r="1.62"/>
      <circle class="cls-6" cx="56.67" cy="51.65" r="1.63"/>
      <circle class="cls-27" cx="65.22" cy="51.66" r="1.62"/>
      <circle class="cls-16" cx="53.56" cy="48.55" r="1.62"/>
      <circle class="cls-18" cx="68.32" cy="48.54" r="1.63"/>
      <circle class="cls-20" cx="52.4" cy="44.29" r="1.62"/>
      <circle class="cls-13" cx="69.46" cy="44.29" r="1.62"/>
      <circle class="cls-26" cx="53.56" cy="40" r="1.62"/>
      <circle class="cls-17" cx="68.33" cy="40.01" r="1.63"/>
    </g>
  </g>
</svg>